HIERARCHY
ROOT Pelvis
{
	OFFSET 0.000000 0.000000 0.000000
	CHANNELS 6 Xposition Yposition Zposition Xrotation Yrotation Zrotation
	JOINT LeftUpLeg_virtual
	{
		OFFSET 0.000000 0.000000 0.000000
		CHANNELS 3 Xrotation Yrotation Zrotation
		JOINT LeftUpLeg
		{
			OFFSET 18.735201 -5.666702 -4.541200
			CHANNELS 3 Xrotation Yrotation Zrotation
			JOINT LeftLeg
			{
				OFFSET -0.021200 -31.938179 0.493100
				CHANNELS 3 Xrotation Yrotation Zrotation
				JOINT LeftFoot
				{
					OFFSET 0.021200 -31.938179 -4.336299
					CHANNELS 3 Xrotation Yrotation Zrotation
					JOINT LeftToeBase
					{
						OFFSET 0.943001 -26.722000 15.023500
						CHANNELS 3 Xrotation Yrotation Zrotation
						End Site
						{
							OFFSET 0 0 0
						}
					}
				}
			}
		}
	}
	JOINT RightUpLeg_virtual
	{
		OFFSET 0.000000 0.000000 0.000000
		CHANNELS 3 Xrotation Yrotation Zrotation
		JOINT RightUpLeg
		{
			OFFSET -18.735201 -5.666702 -4.541200
			CHANNELS 3 Xrotation Yrotation Zrotation
			JOINT RightLeg
			{
				OFFSET 0.018946 -31.938133 0.493100
				CHANNELS 3 Xrotation Yrotation Zrotation
				JOINT RightFoot
				{
					OFFSET -0.018946 -31.938126 -4.336299
					CHANNELS 3 Xrotation Yrotation Zrotation
					JOINT RightToeBase
					{
						OFFSET -0.943001 -26.722004 15.023500
						CHANNELS 3 Xrotation Yrotation Zrotation
						End Site
						{
							OFFSET 0 0 0
						}
					}
				}
			}
		}
	}
	JOINT Hips_virtual
	{
		OFFSET 0.000000 0.000000 0.000000
		CHANNELS 3 Xrotation Yrotation Zrotation
		JOINT Hips
		{
			OFFSET -0.000000 -0.000000 -0.000000
			CHANNELS 3 Xrotation Yrotation Zrotation
			JOINT Spine
			{
				OFFSET 0.000000 10.199997 -0.299500
				CHANNELS 3 Xrotation Yrotation Zrotation
				JOINT Spine1
				{
					OFFSET 0.000000 11.900002 -1.516600
					CHANNELS 3 Xrotation Yrotation Zrotation
					JOINT Spine2
					{
						OFFSET 0.000000 13.600006 -2.842500
						CHANNELS 3 Xrotation Yrotation Zrotation
						JOINT Neck_virtual
						{
							OFFSET 0.000000 0.000000 0.000000
							CHANNELS 3 Xrotation Yrotation Zrotation
							JOINT Neck
							{
								OFFSET 0.000000 9.624100 -2.890100
								CHANNELS 3 Xrotation Yrotation Zrotation
								JOINT Head
								{
									OFFSET 0.000000 14.068802 -1.351900
									CHANNELS 3 Xrotation Yrotation Zrotation
									End Site
									{
										OFFSET 0 0 0
									}
								}
							}
						}
						JOINT LeftShoulder_virtual
						{
							OFFSET 0.000000 0.000000 0.000000
							CHANNELS 3 Xrotation Yrotation Zrotation
							JOINT LeftShoulder
							{
								OFFSET 15.263000 10.923401 -0.547700
								CHANNELS 3 Xrotation Yrotation Zrotation
								JOINT LeftArm
								{
									OFFSET 25.438599 -2.830597 -13.032500
									CHANNELS 3 Xrotation Yrotation Zrotation
									JOINT LeftForeArm
									{
										OFFSET 29.960503 0.000000 0.000000
										CHANNELS 3 Xrotation Yrotation Zrotation
										JOINT LeftHand
										{
											OFFSET 27.849251 0.000000 0.000000
											CHANNELS 3 Xrotation Yrotation Zrotation
											End Site
											{
												OFFSET 0 0 0
											}
										}
									}
								}
							}
						}
						JOINT RightShoulder_virtual
						{
							OFFSET 0.000000 0.000000 0.000000
							CHANNELS 3 Xrotation Yrotation Zrotation
							JOINT RightShoulder
							{
								OFFSET -15.263000 10.923401 -0.547700
								CHANNELS 3 Xrotation Yrotation Zrotation
								JOINT RightArm
								{
									OFFSET -25.438599 -2.830597 -13.032500
									CHANNELS 3 Xrotation Yrotation Zrotation
									JOINT RightForeArm
									{
										OFFSET -29.960503 0.000000 0.000000
										CHANNELS 3 Xrotation Yrotation Zrotation
										JOINT RightHand
										{
											OFFSET -27.849251 0.000000 0.000000
											CHANNELS 3 Xrotation Yrotation Zrotation
											End Site
											{
												OFFSET 0 0 0
											}
										}
									}
								}
							}
						}
					}
				}
			}
		}
	}
}
MOTION
Frames: 11
Frame Time: 0.03333333
-0.605411 85.500580 -1.785450 0.000000 0.000000 0.000000 -1.856400 -44.476764 -0.600879 -44.509986 -1.939143 14.522389 43.823317 -6.706701 -2.073439 -6.308186 -6.061710 -13.009495 0.000000 0.000000 0.000000 12.114091 -35.495387 2.507637 -17.578872 -15.957221 -18.277223 36.851801 -3.857582 1.858022 -15.842576 -8.533941 11.777726 0.000000 0.000000 0.000000 1.084998 -9.985976 -1.073967 -4.808082 -41.781152 -1.206125 14.822149 8.792447 -3.053962 8.186897 6.100976 -2.430496 0.000000 0.000000 0.000000 6.000308 5.903216 -2.354772 -0.069908 2.252252 0.212789 0.000000 0.000000 0.000000 8.162454 6.864433 -3.589643 2.325786 3.140151 -9.317216 0.705068 -9.871688 -52.289804 4.669756 -44.602440 -0.713391 0.000000 0.000000 0.000000 9.328982 7.139254 -1.126178 1.895576 17.518363 8.096919 -6.742364 -8.974152 47.850277 -4.803429 31.676351 11.174157 0.000000 0.000000 0.000000 
-0.378231 85.291138 -1.946603 0.000000 0.000000 0.000000 -1.996182 -44.629463 -0.585916 -44.740116 -2.017320 14.600952 44.028328 -6.646246 -2.132779 -6.080530 -5.991328 -13.083934 0.000000 0.000000 0.000000 11.979033 -35.356659 2.472613 -17.764492 -15.883298 -18.269368 37.170050 -3.832467 1.874099 -15.697223 -8.498134 11.807934 0.000000 0.000000 0.000000 1.251334 -9.998223 -0.986057 -4.108359 -41.664236 -0.708603 14.791123 8.619677 -3.041476 8.252472 6.016241 -2.478896 0.000000 0.000000 0.000000 5.951954 5.902830 -2.357964 -0.146168 2.247010 0.244398 0.000000 0.000000 0.000000 8.243746 6.828706 -3.662668 2.241109 2.891498 -9.368683 0.628360 -9.824540 -52.325635 4.648273 -44.890302 -0.601153 0.000000 0.000000 0.000000 9.446981 7.197241 -1.200989 1.877020 17.348771 8.118213 -6.526977 -9.161404 47.876375 -4.817375 31.765096 11.284489 0.000000 0.000000 0.000000 
0.050105 84.877518 -2.244683 0.000000 0.000000 0.000000 -2.270272 -44.944666 -0.556934 -45.190929 -2.175144 14.753934 44.451561 -6.527852 -2.243072 -5.625068 -5.855390 -13.220220 0.000000 0.000000 0.000000 11.712348 -35.100779 2.399346 -18.138670 -15.740934 -18.265333 37.826346 -3.769792 1.896859 -15.392605 -8.409930 11.863496 0.000000 0.000000 0.000000 1.590797 -10.071981 -0.799961 -2.843370 -41.407107 0.201000 14.749696 8.287220 -3.021810 8.385772 5.846489 -2.571862 0.000000 0.000000 0.000000 5.859839 5.898225 -2.364460 -0.290399 2.233821 0.302475 0.000000 0.000000 0.000000 8.396481 6.749769 -3.799196 2.084138 2.425082 -9.463145 0.522289 -9.723683 -52.355753 4.601262 -45.441938 -0.394222 0.000000 0.000000 0.000000 9.668342 7.299842 -1.334383 1.830239 17.033788 8.162037 -6.158843 -9.468527 47.901018 -4.847666 31.996564 11.492475 0.000000 0.000000 0.000000 
0.634482 84.270309 -2.641694 0.000000 0.000000 0.000000 -2.670079 -45.434777 -0.517046 -45.845910 -2.413650 14.973317 45.114462 -6.357278 -2.390846 -4.942419 -5.663283 -13.398743 0.000000 0.000000 0.000000 11.321013 -34.762617 2.281014 -18.703863 -15.538901 -18.286074 38.850867 -3.647424 1.910142 -14.907984 -8.240838 11.937287 0.000000 0.000000 0.000000 2.112486 -10.274597 -0.501335 -1.230720 -40.984427 1.380662 14.730331 7.819317 -3.005107 8.586685 5.593678 -2.702761 0.000000 0.000000 0.000000 5.732550 5.883363 -2.374522 -0.487938 2.209214 0.378481 0.000000 0.000000 0.000000 8.603022 6.616026 -3.982720 1.874990 1.792149 -9.588968 0.453431 -9.559453 -52.317791 4.522681 -46.211697 -0.121863 0.000000 0.000000 0.000000 9.967344 7.425377 -1.499389 1.742310 16.616693 8.230375 -5.739593 -9.788119 47.877724 -4.903865 32.458883 11.777375 0.000000 0.000000 0.000000 
1.322393 83.485046 -3.100652 0.000000 0.000000 0.000000 -3.187031 -46.105133 -0.472715 -46.684722 -2.731013 15.247979 46.037753 -6.143900 -2.562256 -4.036366 -5.427934 -13.600589 0.000000 0.000000 0.000000 10.814379 -34.378767 2.106498 -19.458473 -15.285851 -18.358042 40.268620 -3.438736 1.895309 -14.227248 -7.958657 12.023667 0.000000 0.000000 0.000000 2.820074 -10.648303 -0.081301 0.509630 -40.390672 2.679948 14.764463 7.247606 -3.004881 8.847789 5.265160 -2.863748 0.000000 0.000000 0.000000 5.581583 5.851932 -2.388363 -0.720591 2.171626 0.463082 0.000000 0.000000 0.000000 8.841896 6.416529 -4.193693 1.634919 1.048774 -9.738150 0.466952 -9.328315 -52.156551 4.407396 -47.139742 0.183757 0.000000 0.000000 0.000000 10.313079 7.550921 -1.666469 1.605798 16.151249 8.324676 -5.377080 -10.013603 47.755487 -5.008160 33.244648 12.117663 0.000000 0.000000 0.000000 
2.066566 82.541222 -3.596488 0.000000 0.000000 0.000000 -3.814336 -46.948333 -0.433624 -47.685259 -3.121354 15.565041 47.230813 -5.899946 -2.746906 -2.917835 -5.163865 -13.813223 0.000000 0.000000 0.000000 10.200894 -33.978805 1.859934 -20.396263 -14.987305 -18.509130 42.083179 -3.119359 1.835881 -13.350340 -7.537007 12.121722 0.000000 0.000000 0.000000 3.702660 -11.181141 0.454680 2.229200 -39.644074 3.986991 14.871784 6.606147 -3.035246 9.152996 4.874940 -3.047155 0.000000 0.000000 0.000000 5.419830 5.798236 -2.405613 -0.969173 2.123230 0.548423 0.000000 0.000000 0.000000 9.092762 6.144716 -4.413349 1.381332 0.242443 -9.909919 0.553523 -9.048380 -51.843158 4.253617 -48.166620 0.495646 0.000000 0.000000 0.000000 10.675449 7.657714 -1.810716 1.424654 15.692264 8.443462 -5.162212 -10.074759 47.493003 -5.197329 34.424700 12.498225 0.000000 0.000000 0.000000 
2.834501 81.460564 -4.118147 0.000000 0.000000 0.000000 -4.546001 -47.946425 -0.410552 -48.823483 -3.575777 15.911576 48.683270 -5.638687 -2.939339 -1.608805 -4.884872 -14.032023 0.000000 0.000000 0.000000 9.484138 -33.582763 1.521975 -21.508646 -14.644416 -18.764205 44.265944 -2.673330 1.721737 -12.300113 -6.963291 12.237436 0.000000 0.000000 0.000000 4.727028 -11.809370 1.082242 3.883816 -38.772962 5.251481 15.055721 5.926487 -3.107352 9.481272 4.441836 -3.246216 0.000000 0.000000 0.000000 5.259940 5.716938 -2.424953 -1.215073 2.069921 0.629212 0.000000 0.000000 0.000000 9.340516 5.799907 -4.626225 1.126051 -0.594584 -10.108905 0.638627 -8.775220 -51.378052 4.064094 -49.252528 0.796445 0.000000 0.000000 0.000000 11.029341 7.733089 -1.915712 1.214331 15.287353 8.579385 -5.164600 -9.954348 47.066103 -5.519666 36.032779 12.915667 0.000000 0.000000 0.000000 
3.611728 80.265091 -4.662724 0.000000 0.000000 0.000000 -5.373364 -49.079830 -0.412061 -50.071622 -4.085086 16.276281 50.362390 -5.372614 -3.138209 -0.143705 -4.602429 -14.258279 0.000000 0.000000 0.000000 8.661646 -33.203479 1.074234 -22.786238 -14.255220 -19.139652 46.756067 -2.096275 1.552104 -11.121601 -6.242540 12.384823 0.000000 0.000000 0.000000 5.835466 -12.448879 1.760239 5.515841 -37.800739 6.476759 15.305245 5.234343 -3.226397 9.812986 3.985421 -3.455072 0.000000 0.000000 0.000000 5.112916 5.602775 -2.444474 -1.441063 2.019617 0.702556 0.000000 0.000000 0.000000 9.576774 5.387053 -4.821127 0.876069 -1.444821 -10.339140 0.596048 -8.607810 -50.782453 3.845789 -50.394662 1.078658 0.000000 0.000000 0.000000 11.356205 7.769712 -1.973970 0.996949 14.971025 8.717199 -5.442235 -9.682143 46.465616 -6.028655 38.061608 13.380704 0.000000 0.000000 0.000000 
4.397658 78.975822 -5.226027 0.000000 0.000000 0.000000 -6.281162 -50.337453 -0.441752 -51.396415 -4.642414 16.650458 52.217971 -5.112469 -3.344190 1.433278 -4.325488 -14.495830 0.000000 0.000000 0.000000 7.728879 -32.851195 0.506445 -24.216538 -13.817987 -19.637682 49.471214 -1.394652 1.336241 -9.873990 -5.395881 12.585133 0.000000 0.000000 0.000000 6.952360 -13.035148 2.439279 7.202560 -36.742866 7.691909 15.600634 4.548526 -3.390401 10.134846 3.522061 -3.668459 0.000000 0.000000 0.000000 4.987332 5.451348 -2.463048 -1.632009 1.979822 0.766997 0.000000 0.000000 0.000000 9.798434 4.915738 -4.990994 0.634733 -2.300143 -10.597745 0.277783 -8.676003 -50.088864 3.608076 -51.634174 1.341812 0.000000 0.000000 0.000000 11.643958 7.763950 -1.985348 0.794724 14.761651 8.834639 -6.051912 -9.311204 45.689137 -6.776705 40.469759 13.918151 0.000000 0.000000 0.000000 
5.196412 77.612045 -5.795388 0.000000 0.000000 0.000000 -7.246317 -51.720638 -0.497992 -52.759806 -5.244041 17.027897 54.191872 -4.867239 -3.557855 3.073772 -4.061297 -14.748182 0.000000 0.000000 0.000000 6.687484 -32.537700 -0.176325 -25.777948 -13.335676 -20.242837 52.325137 -0.582229 1.091011 -8.618567 -4.454873 12.863139 0.000000 0.000000 0.000000 7.998818 -13.547213 3.073477 9.000156 -35.615093 8.921899 15.919873 3.881967 -3.591011 10.440968 3.063031 -3.881252 0.000000 0.000000 0.000000 4.888924 5.260861 -2.481716 -1.776040 1.955697 0.821528 0.000000 0.000000 0.000000 10.004732 4.399219 -5.132000 0.402586 -3.154513 -10.870969 -0.452740 -9.112814 -49.337578 3.359972 -53.048467 1.588419 0.000000 0.000000 0.000000 11.886440 7.714759 -1.954725 0.625058 14.661320 8.906448 -7.049877 -8.887993 44.733146 -7.811546 43.195995 14.565628 0.000000 0.000000 0.000000 
6.006799 76.191612 -6.348216 0.000000 0.000000 0.000000 -8.240837 -53.238818 -0.576234 -54.122593 -5.888022 17.403950 56.227654 -4.644804 -3.778351 4.730636 -3.816592 -15.017158 0.000000 0.000000 0.000000 5.553745 -32.278135 -0.950510 -27.433696 -12.819429 -20.923320 55.244008 0.323308 0.835662 -7.407674 -3.454750 13.240254 0.000000 0.000000 0.000000 8.908644 -14.005270 3.630008 10.909223 -34.442083 10.169725 16.243170 3.243374 -3.815438 10.730483 2.615174 -4.088049 0.000000 0.000000 0.000000 4.820120 5.033649 -2.503879 -1.865984 1.949253 0.865180 0.000000 0.000000 0.000000 10.194780 3.853572 -5.242253 0.178201 -3.997207 -11.133600 -1.695520 -10.022806 -48.579536 3.107499 -54.731863 1.820487 0.000000 0.000000 0.000000 12.083075 7.623176 -1.889672 0.498585 14.658305 8.910139 -8.482093 -8.428893 43.590961 -9.176929 46.176464 15.373052 0.000000 0.000000 0.000000 
